<svg width="11174" height="3472" viewBox="0 0 11174 3472" fill="none" xmlns="http://www.w3.org/2000/svg">
<mask id="path-1-inside-1_9_4346" fill="white">
<path fill-rule="evenodd" clip-rule="evenodd" d="M575.142 70.001H739.469V0H903.795V70.001H1068.12V0H1232.45V70.001H1396.77V0H1561.1V70.001H1725.43V0H1889.75V70.001H2054.08V0H2218.41V70.001H2382.73V0H2547.06V70.001H2711.39V0H2875.71V70.001H3040.04V0H3204.36V70.001H3368.69V0H3533.02V70.001H3697.34V0H3861.67V70.001H4026V0H4190.32V70.001H4354.65V0H4518.98V70.001H4683.3V0H4847.63V70.001H5011.95V0H5176.28V70.001H5340.61V0H5504.93V70.001H5669.26V0H5833.58V70.001H5997.91V0H6162.24V70.001H6326.56V0H6490.89V70.001H6655.22V0H6819.54V70.001H6983.87V0H7148.19V70.001H7272.14C7368.5 252.565 7560.22 377 7781 377L7782.5 376.998V433.985H7818.5V375.797C8023.35 362.609 8199 242.147 8289.86 70.001H8298.48V52.9847C8306.33 36.8249 8313.45 20.2421 8319.79 3.27974C8320.52 1.31501 8322.4 0 8324.49 0H8462.8V70.001H8627.13V0H8791.46V70.001H8955.78V0H9120.11V70.001H9284.43V0H9448.76V70.001H9613.09V0H9777.41V70.001H9941.74V0H10106.1V70.001H10270.4V0H10434.7V70.001H10599V7.18385C10602.5 292.78 10814.3 528.25 11089.4 568.821L11090.1 726.608L11174 726.253V887.574L11090.8 887.926L11091.4 1049.24L11174 1048.9V1210.22L11092.1 1210.56L11092.8 1371.88L11174 1371.54V1532.86L11093.5 1533.2L11094.2 1694.52L11174 1694.18V1855.5L11094.8 1855.84L11095.5 2017.15L11174 2016.82V2178.14L11096.2 2178.47L11096.9 2339.79L11174 2339.46V2500.78L11097.6 2501.11L11098.3 2662.43L11174 2662.11V2823.43L11098.9 2823.74L11099.3 2901.81C10819.3 2938.15 10602.6 3175.82 10599 3464.82V3389H10434.7V3472H10270.4V3389H10106.1V3472H9941.74V3389H9777.41V3472H9613.09V3389H9448.76V3472H9284.43V3389H9120.11V3472H8955.78V3389H8791.46V3472H8627.13V3389H8462.8V3472H8320.25C8318.19 3472 8316.34 3470.73 8315.58 3468.82C8310.35 3455.64 8304.64 3442.7 8298.48 3430.02V3389H8276.45C8182.38 3229.73 8013.7 3119.77 7818.5 3107.2V3038.02H7782.5V3106L7781 3106C7570.03 3106 7385.6 3219.62 7285.55 3389H7148.19V3472H6983.87V3389H6819.54V3472H6655.22V3389H6490.89V3472H6326.56V3389H6162.24V3472H5997.91V3389H5833.58V3472H5669.26V3389H5504.93V3472H5340.61V3389H5176.28V3472H5011.95V3389H4847.63V3472H4683.3V3389H4518.98V3472H4354.65V3389H4190.32V3472H4026V3389H3861.67V3472H3697.34V3389H3533.02V3472H3368.69V3389H3204.36V3472H3040.04V3389H2875.71V3472H2711.39V3389H2547.06V3472H2382.73V3389H2218.41V3472H2054.08V3389H1889.75V3472H1725.43V3389H1561.1V3472H1396.77V3389H1232.45V3472H1068.12V3389H903.795V3472H739.469V3389H575.142V3468.22C575.039 3467.82 574.982 3467.4 574.979 3466.98C572.522 3179.95 359.761 2943.09 83.2696 2902.99L82.9318 2823.07L0 2823.42V2662.1L82.25 2661.75L81.5682 2500.43L0 2500.78V2339.45L80.8864 2339.11L80.2046 2177.8L0 2178.13V2016.81L79.5227 2016.48L78.8409 1855.16L0 1855.49V1694.17L78.1591 1693.84L77.4773 1532.52L0 1532.85V1371.53L76.7955 1371.2L76.1137 1209.89L0 1210.21V1048.89L75.4318 1048.57L74.75 887.25L0 887.566V726.245L74.0682 725.932L73.4107 570.358C354.688 534.514 572.493 295.454 574.979 5.02415C574.982 4.59665 575.039 4.1811 575.142 3.78405V70.001ZM7818.5 2845.12V2941.57H7782.5V2845.12H7818.5ZM7818.5 2652.23V2748.68H7782.5V2652.23H7818.5ZM7818.5 2459.34V2555.79H7782.5V2459.34H7818.5ZM7818.5 2266.45V2362.9H7782.5V2266.45H7818.5ZM7818.5 2073.56V2170.01H7782.5V2073.56H7818.5ZM7818.5 1880.67V1977.11H7782.5V1880.67H7818.5ZM7818.5 1687.78V1784.22H7782.5V1687.78H7818.5ZM7818.5 1494.89V1591.33H7782.5V1494.89H7818.5ZM7818.5 1302V1398.44H7782.5V1302H7818.5ZM7818.5 1109.1V1205.55H7782.5V1109.1H7818.5ZM7818.5 916.213V1012.66H7782.5V916.213H7818.5ZM7818.5 723.322V819.768H7782.5V723.322H7818.5ZM7818.5 530.431V626.876H7782.5V530.431H7818.5Z"/>
</mask>
<path fill-rule="evenodd" clip-rule="evenodd" d="M575.142 70.001H739.469V0H903.795V70.001H1068.12V0H1232.45V70.001H1396.77V0H1561.1V70.001H1725.43V0H1889.75V70.001H2054.08V0H2218.41V70.001H2382.73V0H2547.06V70.001H2711.39V0H2875.71V70.001H3040.04V0H3204.36V70.001H3368.69V0H3533.02V70.001H3697.34V0H3861.67V70.001H4026V0H4190.32V70.001H4354.65V0H4518.98V70.001H4683.3V0H4847.63V70.001H5011.95V0H5176.28V70.001H5340.61V0H5504.93V70.001H5669.26V0H5833.58V70.001H5997.91V0H6162.24V70.001H6326.56V0H6490.89V70.001H6655.22V0H6819.54V70.001H6983.87V0H7148.19V70.001H7272.14C7368.5 252.565 7560.22 377 7781 377L7782.5 376.998V433.985H7818.5V375.797C8023.35 362.609 8199 242.147 8289.86 70.001H8298.48V52.9847C8306.33 36.8249 8313.45 20.2421 8319.79 3.27974C8320.52 1.31501 8322.4 0 8324.49 0H8462.8V70.001H8627.13V0H8791.46V70.001H8955.78V0H9120.11V70.001H9284.43V0H9448.76V70.001H9613.09V0H9777.41V70.001H9941.74V0H10106.1V70.001H10270.4V0H10434.7V70.001H10599V7.18385C10602.5 292.78 10814.3 528.25 11089.4 568.821L11090.1 726.608L11174 726.253V887.574L11090.8 887.926L11091.4 1049.24L11174 1048.9V1210.22L11092.1 1210.56L11092.8 1371.88L11174 1371.54V1532.86L11093.5 1533.2L11094.2 1694.52L11174 1694.18V1855.5L11094.8 1855.84L11095.5 2017.15L11174 2016.82V2178.14L11096.2 2178.47L11096.9 2339.79L11174 2339.46V2500.78L11097.6 2501.11L11098.3 2662.43L11174 2662.11V2823.43L11098.9 2823.74L11099.3 2901.81C10819.3 2938.15 10602.6 3175.82 10599 3464.82V3389H10434.7V3472H10270.4V3389H10106.1V3472H9941.74V3389H9777.41V3472H9613.09V3389H9448.76V3472H9284.43V3389H9120.11V3472H8955.78V3389H8791.46V3472H8627.13V3389H8462.8V3472H8320.25C8318.19 3472 8316.34 3470.73 8315.58 3468.82C8310.35 3455.64 8304.64 3442.7 8298.48 3430.02V3389H8276.45C8182.38 3229.73 8013.7 3119.77 7818.5 3107.2V3038.02H7782.5V3106L7781 3106C7570.03 3106 7385.6 3219.62 7285.55 3389H7148.19V3472H6983.87V3389H6819.54V3472H6655.22V3389H6490.89V3472H6326.56V3389H6162.24V3472H5997.91V3389H5833.58V3472H5669.26V3389H5504.93V3472H5340.61V3389H5176.28V3472H5011.95V3389H4847.63V3472H4683.3V3389H4518.98V3472H4354.65V3389H4190.32V3472H4026V3389H3861.67V3472H3697.34V3389H3533.02V3472H3368.69V3389H3204.36V3472H3040.04V3389H2875.71V3472H2711.39V3389H2547.06V3472H2382.73V3389H2218.41V3472H2054.08V3389H1889.75V3472H1725.43V3389H1561.1V3472H1396.77V3389H1232.45V3472H1068.12V3389H903.795V3472H739.469V3389H575.142V3468.22C575.039 3467.82 574.982 3467.4 574.979 3466.98C572.522 3179.95 359.761 2943.09 83.2696 2902.99L82.9318 2823.07L0 2823.42V2662.1L82.25 2661.75L81.5682 2500.43L0 2500.78V2339.45L80.8864 2339.11L80.2046 2177.8L0 2178.13V2016.81L79.5227 2016.48L78.8409 1855.16L0 1855.49V1694.17L78.1591 1693.84L77.4773 1532.52L0 1532.85V1371.53L76.7955 1371.2L76.1137 1209.89L0 1210.21V1048.89L75.4318 1048.57L74.75 887.25L0 887.566V726.245L74.0682 725.932L73.4107 570.358C354.688 534.514 572.493 295.454 574.979 5.02415C574.982 4.59665 575.039 4.1811 575.142 3.78405V70.001ZM7818.5 2845.12V2941.57H7782.5V2845.12H7818.5ZM7818.5 2652.23V2748.68H7782.5V2652.23H7818.5ZM7818.5 2459.34V2555.79H7782.5V2459.34H7818.5ZM7818.5 2266.45V2362.9H7782.5V2266.45H7818.5ZM7818.5 2073.56V2170.01H7782.5V2073.56H7818.5ZM7818.5 1880.67V1977.11H7782.5V1880.67H7818.5ZM7818.5 1687.78V1784.22H7782.5V1687.78H7818.5ZM7818.5 1494.89V1591.33H7782.5V1494.89H7818.5ZM7818.5 1302V1398.44H7782.5V1302H7818.5ZM7818.5 1109.1V1205.55H7782.5V1109.1H7818.5ZM7818.5 916.213V1012.66H7782.5V916.213H7818.5ZM7818.5 723.322V819.768H7782.5V723.322H7818.5ZM7818.5 530.431V626.876H7782.5V530.431H7818.5Z" fill="white"/>
<path d="M739.469 70.001V309.001H978.469V70.001H739.469ZM575.142 70.001H336.142V309.001H575.142V70.001ZM739.469 0V-239H500.469V0H739.469ZM903.795 0H1142.8V-239H903.795V0ZM903.795 70.001H664.795V309.001H903.795V70.001ZM1068.12 70.001V309.001H1307.12V70.001H1068.12ZM1068.12 0V-239H829.122V0H1068.12ZM1232.45 0H1471.45V-239H1232.45V0ZM1232.45 70.001H993.448V309.001H1232.45V70.001ZM1396.77 70.001V309.001H1635.77V70.001H1396.77ZM1396.77 0V-239H1157.77V0H1396.77ZM1561.1 0H1800.1V-239H1561.1V0ZM1561.1 70.001H1322.1V309.001H1561.1V70.001ZM1725.43 70.001V309.001H1964.43V70.001H1725.43ZM1725.43 0V-239H1486.43V0H1725.43ZM1889.75 0H2128.75V-239H1889.75V0ZM1889.75 70.001H1650.75V309.001H1889.75V70.001ZM2054.08 70.001V309.001H2293.08V70.001H2054.08ZM2054.08 0V-239H1815.08V0H2054.08ZM2218.41 0H2457.41V-239H2218.41V0ZM2218.41 70.001H1979.41V309.001H2218.41V70.001ZM2382.73 70.001V309.001H2621.73V70.001H2382.73ZM2382.73 0V-239H2143.73V0H2382.73ZM2547.06 0H2786.06V-239H2547.06V0ZM2547.06 70.001H2308.06V309.001H2547.06V70.001ZM2711.39 70.001V309.001H2950.39V70.001H2711.39ZM2711.39 0V-239H2472.39V0H2711.39ZM2875.71 0H3114.71V-239H2875.71V0ZM2875.71 70.001H2636.71V309.001H2875.71V70.001ZM3040.04 70.001V309.001H3279.04V70.001H3040.04ZM3040.04 0V-239H2801.04V0H3040.04ZM3204.36 0H3443.36V-239H3204.36V0ZM3204.36 70.001H2965.36V309.001H3204.36V70.001ZM3368.69 70.001V309.001H3607.69V70.001H3368.69ZM3368.69 0V-239H3129.69V0H3368.69ZM3533.02 0H3772.02V-239H3533.02V0ZM3533.02 70.001H3294.02V309.001H3533.02V70.001ZM3697.34 70.001V309.001H3936.34V70.001H3697.34ZM3697.34 0V-239H3458.34V0H3697.34ZM3861.67 0H4100.67V-239H3861.67V0ZM3861.67 70.001H3622.67V309.001H3861.67V70.001ZM4026 70.001V309.001H4265V70.001H4026ZM4026 0V-239H3787V0H4026ZM4190.32 0H4429.32V-239H4190.32V0ZM4190.32 70.001H3951.32V309.001H4190.32V70.001ZM4354.65 70.001V309.001H4593.65V70.001H4354.65ZM4354.65 0V-239H4115.65V0H4354.65ZM4518.98 0H4757.98V-239H4518.98V0ZM4518.98 70.001H4279.98V309.001H4518.98V70.001ZM4683.3 70.001V309.001H4922.3V70.001H4683.3ZM4683.3 0V-239H4444.3V0H4683.3ZM4847.63 0H5086.63V-239H4847.63V0ZM4847.63 70.001H4608.63V309.001H4847.63V70.001ZM5011.95 70.001V309.001H5250.95V70.001H5011.95ZM5011.95 0V-239H4772.95V0H5011.95ZM5176.28 0H5415.28V-239H5176.28V0ZM5176.28 70.001H4937.28V309.001H5176.28V70.001ZM5340.61 70.001V309.001H5579.61V70.001H5340.61ZM5340.61 0V-239H5101.61V0H5340.61ZM5504.93 0H5743.93V-239H5504.93V0ZM5504.93 70.001H5265.93V309.001H5504.93V70.001ZM5669.26 70.001V309.001H5908.26V70.001H5669.26ZM5669.26 0V-239H5430.26V0H5669.26ZM5833.58 0H6072.58V-239H5833.58V0ZM5833.58 70.001H5594.58V309.001H5833.58V70.001ZM5997.91 70.001V309.001H6236.91V70.001H5997.91ZM5997.91 0V-239H5758.91V0H5997.91ZM6162.24 0H6401.24V-239H6162.24V0ZM6162.24 70.001H5923.24V309.001H6162.24V70.001ZM6326.56 70.001V309.001H6565.56V70.001H6326.56ZM6326.56 0V-239H6087.56V0H6326.56ZM6490.89 0H6729.89V-239H6490.89V0ZM6490.89 70.001H6251.89V309.001H6490.89V70.001ZM6655.22 70.001V309.001H6894.22V70.001H6655.22ZM6655.22 0V-239H6416.22V0H6655.22ZM6819.54 0H7058.54V-239H6819.54V0ZM6819.54 70.001H6580.54V309.001H6819.54V70.001ZM6983.87 70.001V309.001H7222.87V70.001H6983.87ZM6983.87 0V-239H6744.87V0H6983.87ZM7148.19 0H7387.19V-239H7148.19V0ZM7148.19 70.001H6909.19V309.001H7148.19V70.001ZM7272.14 70.001L7483.51 -41.552L7416.25 -168.999H7272.14V70.001ZM7781 377V616H7781.15L7781.31 616L7781 377ZM7782.5 376.998H8021.5V137.692L7782.19 137.998L7782.5 376.998ZM7782.5 433.985H7543.5V672.985H7782.5V433.985ZM7818.5 433.985V672.985H8057.5V433.985H7818.5ZM7818.5 375.797L7803.15 137.29L7579.5 151.688V375.797H7818.5ZM8289.86 70.001V-168.999H8145.75L8078.49 -41.5521L8289.86 70.001ZM8298.48 70.001V309.001H8537.48V70.001H8298.48ZM8298.48 52.9847L8083.51 -51.4731L8059.48 -2.00955V52.9847H8298.48ZM8319.79 3.27974L8543.66 86.9547L8543.68 86.9079L8543.7 86.861L8319.79 3.27974ZM8462.8 0H8701.8V-239H8462.8V0ZM8462.8 70.001H8223.8V309.001H8462.8V70.001ZM8627.13 70.001V309.001H8866.13V70.001H8627.13ZM8627.13 0V-239H8388.13V0H8627.13ZM8791.46 0H9030.46V-239H8791.46V0ZM8791.46 70.001H8552.46V309.001H8791.46V70.001ZM8955.78 70.001V309.001H9194.78V70.001H8955.78ZM8955.78 0V-239H8716.78V0H8955.78ZM9120.11 0H9359.11V-239H9120.11V0ZM9120.11 70.001H8881.11V309.001H9120.11V70.001ZM9284.43 70.001V309.001H9523.43V70.001H9284.43ZM9284.43 0V-239H9045.43V0H9284.43ZM9448.76 0H9687.76V-239H9448.76V0ZM9448.76 70.001H9209.76V309.001H9448.76V70.001ZM9613.09 70.001V309.001H9852.09V70.001H9613.09ZM9613.09 0V-239H9374.09V0H9613.09ZM9777.41 0H10016.4V-239H9777.41V0ZM9777.41 70.001H9538.41V309.001H9777.41V70.001ZM9941.74 70.001V309.001H10180.7V70.001H9941.74ZM9941.74 0V-239H9702.74V0H9941.74ZM10106.1 0H10345.1V-239H10106.1V0ZM10106.1 70.001H9867.07V309.001H10106.1V70.001ZM10270.4 70.001V309.001H10509.4V70.001H10270.4ZM10270.4 0V-239H10031.4V0H10270.4ZM10434.7 0H10673.7V-239H10434.7V0ZM10434.7 70.001H10195.7V309.001H10434.7V70.001ZM10599 70.001V309.001H10838V70.001H10599ZM10599 7.18385L10838 4.25838L10360 7.18385H10599ZM11089.4 568.821L11328.4 567.809L11327.5 362.348L11124.3 332.377L11089.4 568.821ZM11090.1 726.608L10851.1 727.62L10852.1 966.616L11091.1 965.606L11090.1 726.608ZM11174 726.253H11413V486.241L11173 487.255L11174 726.253ZM11174 887.574L11175 1126.57L11413 1125.57V887.574H11174ZM11090.8 887.926L11089.7 648.928L10850.7 649.938L10851.8 888.936L11090.8 887.926ZM11091.4 1049.24L10852.4 1050.25L10853.4 1289.25L11092.4 1288.24L11091.4 1049.24ZM11174 1048.9H11413V808.883L11173 809.897L11174 1048.9ZM11174 1210.22L11175 1449.21L11413 1448.21V1210.22H11174ZM11092.1 1210.56L11091.1 971.565L10852.1 972.575L10853.1 1211.57L11092.1 1210.56ZM11092.8 1371.88L10853.8 1372.89L10854.8 1611.89L11093.8 1610.88L11092.8 1371.88ZM11174 1371.54H11413V1131.53L11173 1132.54L11174 1371.54ZM11174 1532.86L11175 1771.86L11413 1770.85V1532.86H11174ZM11093.5 1533.2L11092.5 1294.2L10853.5 1295.21L10854.5 1534.21L11093.5 1533.2ZM11094.2 1694.52L10855.2 1695.53L10856.2 1934.52L11095.2 1933.51L11094.2 1694.52ZM11174 1694.18H11413V1454.17L11173 1455.18L11174 1694.18ZM11174 1855.5L11175 2094.5L11413 2093.49V1855.5H11174ZM11094.8 1855.84L11093.8 1616.84L10854.8 1617.85L10855.8 1856.84L11094.8 1855.84ZM11095.5 2017.15L10856.5 2018.16L10857.5 2257.16L11096.5 2256.15L11095.5 2017.15ZM11174 2016.82H11413V1776.81L11173 1777.82L11174 2016.82ZM11174 2178.14L11175 2417.14L11413 2416.14V2178.14H11174ZM11096.2 2178.47L11095.2 1939.47L10856.2 1940.48L10857.2 2179.48L11096.2 2178.47ZM11096.9 2339.79L10857.9 2340.8L10858.9 2579.8L11097.9 2578.79L11096.9 2339.79ZM11174 2339.46H11413V2099.45L11173 2100.47L11174 2339.46ZM11174 2500.78L11175 2739.78L11413 2738.78V2500.78H11174ZM11097.6 2501.11L11096.6 2262.11L10857.6 2263.12L10858.6 2502.12L11097.6 2501.11ZM11098.3 2662.43L10859.3 2663.44L10860.3 2902.43L11099.3 2901.42L11098.3 2662.43ZM11174 2662.11H11413V2422.09L11173 2423.11L11174 2662.11ZM11174 2823.43L11175 3062.42L11413 3061.42V2823.43H11174ZM11098.9 2823.74L11097.9 2584.75L10858.9 2585.76L10859.9 2824.75L11098.9 2823.74ZM11099.3 2901.81L11130 3138.82L11339.2 3111.68L11338.3 2900.8L11099.3 2901.81ZM10599 3464.82H10360L10838 3467.74L10599 3464.82ZM10599 3389H10838V3150H10599V3389ZM10434.7 3389V3150H10195.7V3389H10434.7ZM10434.7 3472V3711H10673.7V3472H10434.7ZM10270.4 3472H10031.4V3711H10270.4V3472ZM10270.4 3389H10509.4V3150H10270.4V3389ZM10106.1 3389V3150H9867.07V3389H10106.1ZM10106.1 3472V3711H10345.1V3472H10106.1ZM9941.74 3472H9702.74V3711H9941.74V3472ZM9941.74 3389H10180.7V3150H9941.74V3389ZM9777.41 3389V3150H9538.41V3389H9777.41ZM9777.41 3472V3711H10016.4V3472H9777.41ZM9613.09 3472H9374.09V3711H9613.09V3472ZM9613.09 3389H9852.09V3150H9613.09V3389ZM9448.76 3389V3150H9209.76V3389H9448.76ZM9448.76 3472V3711H9687.76V3472H9448.76ZM9284.43 3472H9045.43V3711H9284.43V3472ZM9284.43 3389H9523.43V3150H9284.43V3389ZM9120.11 3389V3150H8881.11V3389H9120.11ZM9120.11 3472V3711H9359.11V3472H9120.11ZM8955.78 3472H8716.78V3711H8955.78V3472ZM8955.78 3389H9194.78V3150H8955.78V3389ZM8791.46 3389V3150H8552.46V3389H8791.46ZM8791.46 3472V3711H9030.46V3472H8791.46ZM8627.13 3472H8388.13V3711H8627.13V3472ZM8627.13 3389H8866.13V3150H8627.13V3389ZM8462.8 3389V3150H8223.8V3389H8462.8ZM8462.8 3472V3711H8701.8V3472H8462.8ZM8315.58 3468.82L8537.73 3380.65L8537.72 3380.62L8537.7 3380.59L8315.58 3468.82ZM8298.48 3430.02H8059.48V3485.01L8083.51 3534.47L8298.48 3430.02ZM8298.48 3389H8537.48V3150H8298.48V3389ZM8276.45 3389L8070.66 3510.55L8140.03 3628H8276.45V3389ZM7818.5 3107.2H7579.5V3331.31L7803.15 3345.71L7818.5 3107.2ZM7818.5 3038.02H8057.5V2799.02H7818.5V3038.02ZM7782.5 3038.02V2799.02H7543.5V3038.02H7782.5ZM7782.5 3106L7782.19 3345L8021.5 3345.31V3106H7782.5ZM7781 3106L7781.31 2867L7781.16 2867H7781V3106ZM7285.55 3389V3628H7421.97L7491.34 3510.55L7285.55 3389ZM7148.19 3389V3150H6909.19V3389H7148.19ZM7148.19 3472V3711H7387.19V3472H7148.19ZM6983.87 3472H6744.87V3711H6983.87V3472ZM6983.87 3389H7222.87V3150H6983.87V3389ZM6819.54 3389V3150H6580.54V3389H6819.54ZM6819.54 3472V3711H7058.54V3472H6819.54ZM6655.22 3472H6416.22V3711H6655.22V3472ZM6655.22 3389H6894.22V3150H6655.22V3389ZM6490.89 3389V3150H6251.89V3389H6490.89ZM6490.89 3472V3711H6729.89V3472H6490.89ZM6326.56 3472H6087.56V3711H6326.56V3472ZM6326.56 3389H6565.56V3150H6326.56V3389ZM6162.24 3389V3150H5923.24V3389H6162.24ZM6162.24 3472V3711H6401.24V3472H6162.24ZM5997.91 3472H5758.91V3711H5997.91V3472ZM5997.91 3389H6236.91V3150H5997.91V3389ZM5833.58 3389V3150H5594.58V3389H5833.58ZM5833.58 3472V3711H6072.58V3472H5833.58ZM5669.26 3472H5430.26V3711H5669.26V3472ZM5669.26 3389H5908.26V3150H5669.26V3389ZM5504.93 3389V3150H5265.93V3389H5504.93ZM5504.93 3472V3711H5743.93V3472H5504.93ZM5340.61 3472H5101.61V3711H5340.61V3472ZM5340.61 3389H5579.61V3150H5340.61V3389ZM5176.28 3389V3150H4937.28V3389H5176.28ZM5176.28 3472V3711H5415.28V3472H5176.28ZM5011.95 3472H4772.95V3711H5011.95V3472ZM5011.95 3389H5250.95V3150H5011.95V3389ZM4847.63 3389V3150H4608.63V3389H4847.63ZM4847.63 3472V3711H5086.63V3472H4847.63ZM4683.3 3472H4444.3V3711H4683.3V3472ZM4683.3 3389H4922.3V3150H4683.3V3389ZM4518.98 3389V3150H4279.98V3389H4518.98ZM4518.98 3472V3711H4757.98V3472H4518.98ZM4354.65 3472H4115.65V3711H4354.65V3472ZM4354.65 3389H4593.65V3150H4354.65V3389ZM4190.32 3389V3150H3951.32V3389H4190.32ZM4190.32 3472V3711H4429.32V3472H4190.32ZM4026 3472H3787V3711H4026V3472ZM4026 3389H4265V3150H4026V3389ZM3861.67 3389V3150H3622.67V3389H3861.67ZM3861.67 3472V3711H4100.67V3472H3861.67ZM3697.34 3472H3458.34V3711H3697.34V3472ZM3697.34 3389H3936.34V3150H3697.34V3389ZM3533.02 3389V3150H3294.02V3389H3533.02ZM3533.02 3472V3711H3772.02V3472H3533.02ZM3368.69 3472H3129.69V3711H3368.69V3472ZM3368.69 3389H3607.69V3150H3368.69V3389ZM3204.36 3389V3150H2965.36V3389H3204.36ZM3204.36 3472V3711H3443.36V3472H3204.36ZM3040.04 3472H2801.04V3711H3040.04V3472ZM3040.04 3389H3279.04V3150H3040.04V3389ZM2875.71 3389V3150H2636.71V3389H2875.71ZM2875.71 3472V3711H3114.71V3472H2875.71ZM2711.39 3472H2472.39V3711H2711.39V3472ZM2711.39 3389H2950.39V3150H2711.39V3389ZM2547.06 3389V3150H2308.06V3389H2547.06ZM2547.06 3472V3711H2786.06V3472H2547.06ZM2382.73 3472H2143.73V3711H2382.73V3472ZM2382.73 3389H2621.73V3150H2382.73V3389ZM2218.41 3389V3150H1979.41V3389H2218.41ZM2218.41 3472V3711H2457.41V3472H2218.41ZM2054.08 3472H1815.08V3711H2054.08V3472ZM2054.08 3389H2293.08V3150H2054.08V3389ZM1889.75 3389V3150H1650.75V3389H1889.75ZM1889.75 3472V3711H2128.75V3472H1889.75ZM1725.43 3472H1486.43V3711H1725.43V3472ZM1725.43 3389H1964.43V3150H1725.43V3389ZM1561.1 3389V3150H1322.1V3389H1561.1ZM1561.1 3472V3711H1800.1V3472H1561.1ZM1396.77 3472H1157.77V3711H1396.77V3472ZM1396.77 3389H1635.77V3150H1396.77V3389ZM1232.45 3389V3150H993.448V3389H1232.45ZM1232.45 3472V3711H1471.45V3472H1232.45ZM1068.12 3472H829.122V3711H1068.12V3472ZM1068.12 3389H1307.12V3150H1068.12V3389ZM903.795 3389V3150H664.795V3389H903.795ZM903.795 3472V3711H1142.8V3472H903.795ZM739.469 3472H500.469V3711H739.469V3472ZM739.469 3389H978.469V3150H739.469V3389ZM575.142 3389V3150H336.142V3389H575.142ZM575.142 3468.22L343.867 3528.49L814.142 3468.22H575.142ZM574.979 3466.98L335.987 3469.02L335.987 3469.02L574.979 3466.98ZM83.2696 2902.99L-155.728 2904L-154.858 3109.94L48.9589 3139.51L83.2696 2902.99ZM82.9318 2823.07L321.93 2822.06L320.92 2583.06L81.9215 2584.07L82.9318 2823.07ZM0 2823.42H-239V3063.43L1.01034 3062.42L0 2823.42ZM0 2662.1L-1.0102 2423.1L-239 2424.1L-239 2662.1H0ZM82.25 2661.75L83.2602 2900.75L322.258 2899.74L321.248 2660.74L82.25 2661.75ZM81.5682 2500.43L320.566 2499.42L319.556 2260.42L80.5581 2261.43L81.5682 2500.43ZM0 2500.78H-239V2740.79L1.01006 2739.77L0 2500.78ZM0 2339.45L-1.00992 2100.46L-239 2101.46V2339.45H0ZM80.8864 2339.11L81.8963 2578.11L320.894 2577.1L319.884 2338.1L80.8864 2339.11ZM80.2046 2177.8L319.202 2176.79L318.192 1937.79L79.1948 1938.8L80.2046 2177.8ZM0 2178.13H-239V2418.15L1.00977 2417.13L0 2178.13ZM0 2016.81L-1.00999 1777.82L-239 1778.82V2016.81H0ZM79.5227 2016.48L80.5327 2255.47L319.531 2254.46L318.521 2015.47L79.5227 2016.48ZM78.8409 1855.16L317.839 1854.15L316.829 1615.15L77.8307 1616.16L78.8409 1855.16ZM0 1855.49H-239V2095.5L1.01022 2094.49L0 1855.49ZM0 1694.17L-1.01007 1455.17L-239 1456.18V1694.17H0ZM78.1591 1693.84L79.1692 1932.84L318.167 1931.83L317.157 1692.83L78.1591 1693.84ZM77.4773 1532.52L316.475 1531.51L315.465 1292.51L76.467 1293.52L77.4773 1532.52ZM0 1532.85H-239V1772.86L1.0103 1771.85L0 1532.85ZM0 1371.53L-1.01015 1132.53L-239 1133.54V1371.53H0ZM76.7955 1371.2L77.8056 1610.2L316.803 1609.19L315.793 1370.19L76.7955 1371.2ZM76.1137 1209.89L315.112 1208.88L314.101 969.878L75.1037 970.888L76.1137 1209.89ZM0 1210.21H-239V1450.22L1.01 1449.21L0 1210.21ZM0 1048.89L-1.01024 809.889L-239 810.895V1048.89H0ZM75.4318 1048.57L76.4421 1287.57L315.44 1286.56L314.43 1047.56L75.4318 1048.57ZM74.75 887.25L313.748 886.24L312.738 647.242L73.7399 648.252L74.75 887.25ZM0 887.566H-239V1127.58L1.01008 1126.56L0 887.566ZM0 726.245L-1.01012 487.247L-239 488.253V726.245H0ZM74.0682 725.932L75.0783 964.93L314.076 963.919L313.066 724.922L74.0682 725.932ZM73.4107 570.358L43.199 333.275L-166.481 359.995L-165.587 571.368L73.4107 570.358ZM574.979 5.02415L335.987 2.97685L335.987 2.97868L574.979 5.02415ZM575.142 3.78405H814.142L343.864 -56.4768L575.142 3.78405ZM7818.5 2941.57V3180.57H8057.5V2941.57H7818.5ZM7818.5 2845.12H8057.5V2606.12H7818.5V2845.12ZM7782.5 2941.57H7543.5V3180.57H7782.5V2941.57ZM7782.5 2845.12V2606.12H7543.5V2845.12H7782.5ZM7818.5 2748.68V2987.68H8057.5V2748.68H7818.5ZM7818.5 2652.23H8057.5V2413.23H7818.5V2652.23ZM7782.5 2748.68H7543.5V2987.68H7782.5V2748.68ZM7782.5 2652.23V2413.23H7543.5V2652.23H7782.5ZM7818.5 2555.79V2794.79H8057.5V2555.79H7818.5ZM7818.5 2459.34H8057.5V2220.34H7818.5V2459.34ZM7782.5 2555.79H7543.5V2794.79H7782.5V2555.79ZM7782.5 2459.34V2220.34H7543.5V2459.34H7782.5ZM7818.5 2362.9V2601.9H8057.5V2362.9H7818.5ZM7818.5 2266.45H8057.5V2027.45H7818.5V2266.45ZM7782.5 2362.9H7543.5V2601.9H7782.5V2362.9ZM7782.5 2266.45V2027.45H7543.5V2266.45H7782.5ZM7818.5 2170.01V2409.01H8057.5V2170.01H7818.5ZM7818.5 2073.56H8057.5V1834.56H7818.5V2073.56ZM7782.5 2170.01H7543.5V2409.01H7782.5V2170.01ZM7782.5 2073.56V1834.56H7543.5V2073.56H7782.5ZM7818.5 1977.11V2216.11H8057.5V1977.11H7818.5ZM7818.5 1880.67H8057.5V1641.67H7818.5V1880.67ZM7782.5 1977.11H7543.5V2216.11H7782.5V1977.11ZM7782.5 1880.67V1641.67H7543.5V1880.67H7782.5ZM7818.5 1784.22V2023.22H8057.5V1784.22H7818.5ZM7818.5 1687.78H8057.5V1448.78H7818.5V1687.78ZM7782.5 1784.22H7543.5V2023.22H7782.5V1784.22ZM7782.5 1687.78V1448.78H7543.5V1687.78H7782.5ZM7818.5 1591.33V1830.33H8057.5V1591.33H7818.5ZM7818.5 1494.89H8057.5V1255.89H7818.5V1494.89ZM7782.5 1591.33H7543.5V1830.33H7782.5V1591.33ZM7782.5 1494.89V1255.89H7543.5V1494.89H7782.5ZM7818.5 1398.44V1637.44H8057.5V1398.44H7818.5ZM7818.5 1302H8057.5V1063H7818.5V1302ZM7782.5 1398.44H7543.5V1637.44H7782.5V1398.44ZM7782.5 1302V1063H7543.5V1302H7782.5ZM7818.5 1205.55V1444.55H8057.5V1205.55H7818.5ZM7818.5 1109.1H8057.5V870.104H7818.5V1109.1ZM7782.5 1205.55H7543.5V1444.55H7782.5V1205.55ZM7782.5 1109.1V870.104H7543.5V1109.1H7782.5ZM7818.5 1012.66V1251.66H8057.5V1012.66H7818.5ZM7818.5 916.213H8057.5V677.213H7818.5V916.213ZM7782.5 1012.66H7543.5V1251.66H7782.5V1012.66ZM7782.5 916.213V677.213H7543.5V916.213H7782.5ZM7818.5 819.768V1058.77H8057.5V819.768H7818.5ZM7818.5 723.322H8057.5V484.322H7818.5V723.322ZM7782.5 819.768H7543.5V1058.77H7782.5V819.768ZM7782.5 723.322V484.322H7543.5V723.322H7782.5ZM7818.5 626.876V865.876H8057.5V626.876H7818.5ZM7818.5 530.431H8057.5V291.431H7818.5V530.431ZM7782.5 626.876H7543.5V865.876H7782.5V626.876ZM7782.5 530.431V291.431H7543.5V530.431H7782.5ZM739.469 -168.999H575.142V309.001H739.469V-168.999ZM500.469 0V70.001H978.469V0H500.469ZM739.469 239H903.795V-239H739.469V239ZM1142.8 70.001V0H664.795V70.001H1142.8ZM1068.12 -168.999H903.795V309.001H1068.12V-168.999ZM829.122 0V70.001H1307.12V0H829.122ZM1068.12 239H1232.45V-239H1068.12V239ZM1471.45 70.001V0H993.448V70.001H1471.45ZM1396.77 -168.999H1232.45V309.001H1396.77V-168.999ZM1157.77 0V70.001H1635.77V0H1157.77ZM1396.77 239H1561.1V-239H1396.77V239ZM1800.1 70.001V0H1322.1V70.001H1800.1ZM1725.43 -168.999H1561.1V309.001H1725.43V-168.999ZM1486.43 0V70.001H1964.43V0H1486.43ZM1725.43 239H1889.75V-239H1725.43V239ZM2128.75 70.001V0H1650.75V70.001H2128.75ZM2054.08 -168.999H1889.75V309.001H2054.08V-168.999ZM1815.08 0V70.001H2293.08V0H1815.08ZM2054.08 239H2218.41V-239H2054.08V239ZM2457.41 70.001V0H1979.41V70.001H2457.41ZM2382.73 -168.999H2218.41V309.001H2382.73V-168.999ZM2143.73 0V70.001H2621.73V0H2143.73ZM2382.73 239H2547.06V-239H2382.73V239ZM2786.06 70.001V0H2308.06V70.001H2786.06ZM2711.39 -168.999H2547.06V309.001H2711.39V-168.999ZM2472.39 0V70.001H2950.39V0H2472.39ZM2711.39 239H2875.71V-239H2711.39V239ZM3114.71 70.001V0H2636.71V70.001H3114.71ZM3040.04 -168.999H2875.71V309.001H3040.04V-168.999ZM2801.04 0V70.001H3279.04V0H2801.04ZM3040.04 239H3204.36V-239H3040.04V239ZM3443.36 70.001V0H2965.36V70.001H3443.36ZM3368.69 -168.999H3204.36V309.001H3368.69V-168.999ZM3129.69 0V70.001H3607.69V0H3129.69ZM3368.69 239H3533.02V-239H3368.69V239ZM3772.02 70.001V0H3294.02V70.001H3772.02ZM3697.34 -168.999H3533.02V309.001H3697.34V-168.999ZM3458.34 0V70.001H3936.34V0H3458.34ZM3697.34 239H3861.67V-239H3697.34V239ZM4100.67 70.001V0H3622.67V70.001H4100.67ZM4026 -168.999H3861.67V309.001H4026V-168.999ZM3787 0V70.001H4265V0H3787ZM4026 239H4190.32V-239H4026V239ZM4429.32 70.001V0H3951.32V70.001H4429.32ZM4354.65 -168.999H4190.32V309.001H4354.65V-168.999ZM4115.65 0V70.001H4593.65V0H4115.65ZM4354.65 239H4518.98V-239H4354.65V239ZM4757.98 70.001V0H4279.98V70.001H4757.98ZM4683.3 -168.999H4518.98V309.001H4683.3V-168.999ZM4444.3 0V70.001H4922.3V0H4444.3ZM4683.3 239H4847.63V-239H4683.3V239ZM5086.63 70.001V0H4608.63V70.001H5086.63ZM5011.95 -168.999H4847.63V309.001H5011.95V-168.999ZM4772.95 0V70.001H5250.95V0H4772.95ZM5011.95 239H5176.28V-239H5011.95V239ZM5415.28 70.001V0H4937.28V70.001H5415.28ZM5340.61 -168.999H5176.28V309.001H5340.61V-168.999ZM5101.61 0V70.001H5579.61V0H5101.61ZM5340.61 239H5504.93V-239H5340.61V239ZM5743.93 70.001V0H5265.93V70.001H5743.93ZM5669.26 -168.999H5504.93V309.001H5669.26V-168.999ZM5430.26 0V70.001H5908.26V0H5430.26ZM5669.26 239H5833.58V-239H5669.26V239ZM6072.58 70.001V0H5594.58V70.001H6072.58ZM5997.91 -168.999H5833.58V309.001H5997.91V-168.999ZM5758.91 0V70.001H6236.91V0H5758.91ZM5997.91 239H6162.24V-239H5997.91V239ZM6401.24 70.001V0H5923.24V70.001H6401.24ZM6326.56 -168.999H6162.24V309.001H6326.56V-168.999ZM6087.56 0V70.001H6565.56V0H6087.56ZM6326.56 239H6490.89V-239H6326.56V239ZM6729.89 70.001V0H6251.89V70.001H6729.89ZM6655.22 -168.999H6490.89V309.001H6655.22V-168.999ZM6416.22 0V70.001H6894.22V0H6416.22ZM6655.22 239H6819.54V-239H6655.22V239ZM7058.54 70.001V0H6580.54V70.001H7058.54ZM6983.87 -168.999H6819.54V309.001H6983.87V-168.999ZM6744.87 0V70.001H7222.87V0H6744.87ZM6983.87 239H7148.19V-239H6983.87V239ZM7387.19 70.001V0H6909.19V70.001H7387.19ZM7272.14 -168.999H7148.19V309.001H7272.14V-168.999ZM7060.78 181.554C7196.86 439.397 7468.11 616 7781 616V138C7652.32 138 7540.13 65.7329 7483.51 -41.552L7060.78 181.554ZM7781.31 616L7782.81 615.998L7782.19 137.998L7780.69 138L7781.31 616ZM7543.5 376.998V433.985H8021.5V376.998H7543.5ZM7782.5 672.985H7818.5V194.985H7782.5V672.985ZM8057.5 433.985V375.797H7579.5V433.985H8057.5ZM7833.85 614.303C8124.51 595.592 8372.91 424.691 8501.22 181.554L8078.49 -41.5521C8025.1 59.6029 7922.2 129.626 7803.15 137.29L7833.85 614.303ZM8298.48 -168.999H8289.86V309.001H8298.48V-168.999ZM8059.48 52.9847V70.001H8537.48V52.9847H8059.48ZM8513.44 157.442C8524.57 134.532 8534.67 111.015 8543.66 86.9547L8095.91 -80.3952C8092.23 -70.5305 8088.09 -60.8819 8083.51 -51.4731L8513.44 157.442ZM8543.7 86.861C8509.91 177.359 8423.21 239 8324.49 239V-239C8221.58 -239 8131.13 -174.729 8095.88 -80.3016L8543.7 86.861ZM8324.49 239H8462.8V-239H8324.49V239ZM8701.8 70.001V0H8223.8V70.001H8701.8ZM8627.13 -168.999H8462.8V309.001H8627.13V-168.999ZM8388.13 0V70.001H8866.13V0H8388.13ZM8627.13 239H8791.46V-239H8627.13V239ZM9030.46 70.001V0H8552.46V70.001H9030.46ZM8955.78 -168.999H8791.46V309.001H8955.78V-168.999ZM8716.78 0V70.001H9194.78V0H8716.78ZM8955.78 239H9120.11V-239H8955.78V239ZM9359.11 70.001V0H8881.11V70.001H9359.11ZM9284.43 -168.999H9120.11V309.001H9284.43V-168.999ZM9045.43 0V70.001H9523.43V0H9045.43ZM9284.43 239H9448.76V-239H9284.43V239ZM9687.76 70.001V0H9209.76V70.001H9687.76ZM9613.09 -168.999H9448.76V309.001H9613.09V-168.999ZM9374.09 0V70.001H9852.09V0H9374.09ZM9613.09 239H9777.41V-239H9613.09V239ZM10016.4 70.001V0H9538.41V70.001H10016.4ZM9941.74 -168.999H9777.41V309.001H9941.74V-168.999ZM9702.74 0V70.001H10180.7V0H9702.74ZM9941.74 239H10106.1V-239H9941.74V239ZM10345.1 70.001V0H9867.07V70.001H10345.1ZM10270.4 -168.999H10106.1V309.001H10270.4V-168.999ZM10031.4 0V70.001H10509.4V0H10031.4ZM10270.4 239H10434.7V-239H10270.4V239ZM10673.7 70.001V0H10195.7V70.001H10673.7ZM10599 -168.999H10434.7V309.001H10599V-168.999ZM10360 7.18385V70.001H10838V7.18385H10360ZM10360.1 10.1093C10365 414.693 10664.8 747.796 11054.5 805.264L11124.3 332.377C10963.7 308.704 10840.1 170.867 10838 4.25838L10360.1 10.1093ZM11329.1 725.596L11328.4 567.809L10850.4 569.832L10851.1 727.62L11329.1 725.596ZM11173 487.255L11089.1 487.61L11091.1 965.606L11175 965.251L11173 487.255ZM10935 726.253V887.574H11413V726.253H10935ZM11091.8 1126.92L11175 1126.57L11173 648.576L11089.7 648.928L11091.8 1126.92ZM11330.4 1048.23L11329.7 886.916L10851.8 888.936L10852.4 1050.25L11330.4 1048.23ZM11173 809.897L11090.4 810.246L11092.4 1288.24L11175 1287.89L11173 809.897ZM10935 1048.9V1210.22H11413V1048.9H10935ZM11093.1 1449.56L11175 1449.21L11173 971.218L11091.1 971.565L11093.1 1449.56ZM11331.8 1370.87L11331.1 1209.55L10853.1 1211.57L10853.8 1372.89L11331.8 1370.87ZM11173 1132.54L11091.8 1132.88L11093.8 1610.88L11175 1610.54L11173 1132.54ZM10935 1371.54V1532.86H11413V1371.54H10935ZM11094.5 1772.2L11175 1771.86L11173 1293.86L11092.5 1294.2L11094.5 1772.2ZM11333.2 1693.51L11332.5 1532.19L10854.5 1534.21L10855.2 1695.53L11333.2 1693.51ZM11173 1455.18L11093.2 1455.52L11095.2 1933.51L11175 1933.18L11173 1455.18ZM10935 1694.18V1855.5H11413V1694.18H10935ZM11095.9 2094.83L11175 2094.5L11173 1616.5L11093.8 1616.84L11095.9 2094.83ZM11334.5 2016.14L11333.8 1854.83L10855.8 1856.84L10856.5 2018.16L11334.5 2016.14ZM11173 1777.82L11094.5 1778.16L11096.5 2256.15L11175 2255.82L11173 1777.82ZM10935 2016.82V2178.14H11413V2016.82H10935ZM11097.2 2417.47L11175 2417.14L11173 1939.14L11095.2 1939.47L11097.2 2417.47ZM11335.9 2338.78L11335.2 2177.46L10857.2 2179.48L10857.9 2340.8L11335.9 2338.78ZM11173 2100.47L11095.9 2100.79L11097.9 2578.79L11175 2578.46L11173 2100.47ZM10935 2339.46V2500.78H11413V2339.46H10935ZM11098.6 2740.11L11175 2739.78L11173 2261.79L11096.6 2262.11L11098.6 2740.11ZM11337.2 2661.42L11336.6 2500.1L10858.6 2502.12L10859.3 2663.44L11337.2 2661.42ZM11173 2423.11L11097.2 2423.43L11099.3 2901.42L11175 2901.1L11173 2423.11ZM10935 2662.11V2823.43H11413V2662.11H10935ZM11099.9 3062.74L11175 3062.42L11173 2584.43L11097.9 2584.75L11099.9 3062.74ZM11338.3 2900.8L11337.9 2822.73L10859.9 2824.75L10860.3 2902.82L11338.3 2900.8ZM11068.5 2664.8C10671.9 2716.27 10365.1 3052.51 10360.1 3461.89L10838 3467.74C10840.1 3299.12 10966.7 3160.02 11130 3138.82L11068.5 2664.8ZM10360 3389V3464.82H10838V3389H10360ZM10434.7 3628H10599V3150H10434.7V3628ZM10673.7 3472V3389H10195.7V3472H10673.7ZM10434.7 3233H10270.4V3711H10434.7V3233ZM10031.4 3389V3472H10509.4V3389H10031.4ZM10106.1 3628H10270.4V3150H10106.1V3628ZM10345.1 3472V3389H9867.07V3472H10345.1ZM10106.1 3233H9941.74V3711H10106.1V3233ZM9702.74 3389V3472H10180.7V3389H9702.74ZM9777.41 3628H9941.74V3150H9777.41V3628ZM10016.4 3472V3389H9538.41V3472H10016.4ZM9777.41 3233H9613.09V3711H9777.41V3233ZM9374.09 3389V3472H9852.09V3389H9374.09ZM9448.76 3628H9613.09V3150H9448.76V3628ZM9687.76 3472V3389H9209.76V3472H9687.76ZM9448.76 3233H9284.43V3711H9448.76V3233ZM9045.43 3389V3472H9523.43V3389H9045.43ZM9120.11 3628H9284.43V3150H9120.11V3628ZM9359.11 3472V3389H8881.11V3472H9359.11ZM9120.11 3233H8955.78V3711H9120.11V3233ZM8716.78 3389V3472H9194.78V3389H8716.78ZM8791.46 3628H8955.78V3150H8791.46V3628ZM9030.46 3472V3389H8552.46V3472H9030.46ZM8791.46 3233H8627.13V3711H8791.46V3233ZM8388.13 3389V3472H8866.13V3389H8388.13ZM8462.8 3628H8627.13V3150H8462.8V3628ZM8701.8 3472V3389H8223.8V3472H8701.8ZM8462.8 3233H8320.25V3711H8462.8V3233ZM8320.25 3233C8417.18 3233 8502.73 3292.47 8537.73 3380.65L8093.44 3556.98C8129.96 3649 8219.21 3711 8320.25 3711V3233ZM8537.7 3380.59C8530.27 3361.88 8522.17 3343.53 8513.45 3325.57L8083.51 3534.47C8087.1 3541.86 8090.43 3549.39 8093.47 3557.05L8537.7 3380.59ZM8059.48 3389V3430.02H8537.48V3389H8059.48ZM8276.45 3628H8298.48V3150H8276.45V3628ZM8482.23 3267.46C8349.41 3042.58 8110.81 2886.53 7833.85 2868.7L7803.15 3345.71C7916.59 3353.01 8015.34 3416.88 8070.66 3510.55L8482.23 3267.46ZM8057.5 3107.2V3038.02H7579.5V3107.2H8057.5ZM7818.5 2799.02H7782.5V3277.02H7818.5V2799.02ZM7543.5 3038.02V3106H8021.5V3038.02H7543.5ZM7782.81 2867L7781.31 2867L7780.69 3345L7782.19 3345L7782.81 2867ZM7781 2867C7482.05 2867 7221.03 3028.29 7079.77 3267.46L7491.34 3510.55C7550.17 3410.94 7658.01 3345 7781 3345V2867ZM7148.19 3628H7285.55V3150H7148.19V3628ZM7387.19 3472V3389H6909.19V3472H7387.19ZM7148.19 3233H6983.87V3711H7148.19V3233ZM6744.87 3389V3472H7222.87V3389H6744.87ZM6819.54 3628H6983.87V3150H6819.54V3628ZM7058.54 3472V3389H6580.54V3472H7058.54ZM6819.54 3233H6655.22V3711H6819.54V3233ZM6416.22 3389V3472H6894.22V3389H6416.22ZM6490.89 3628H6655.22V3150H6490.89V3628ZM6729.89 3472V3389H6251.89V3472H6729.89ZM6490.89 3233H6326.56V3711H6490.89V3233ZM6087.56 3389V3472H6565.56V3389H6087.56ZM6162.24 3628H6326.56V3150H6162.24V3628ZM6401.24 3472V3389H5923.24V3472H6401.24ZM6162.24 3233H5997.91V3711H6162.24V3233ZM5758.91 3389V3472H6236.91V3389H5758.91ZM5833.58 3628H5997.91V3150H5833.58V3628ZM6072.58 3472V3389H5594.58V3472H6072.58ZM5833.58 3233H5669.26V3711H5833.58V3233ZM5430.26 3389V3472H5908.26V3389H5430.26ZM5504.93 3628H5669.26V3150H5504.93V3628ZM5743.93 3472V3389H5265.93V3472H5743.93ZM5504.93 3233H5340.61V3711H5504.93V3233ZM5101.61 3389V3472H5579.61V3389H5101.61ZM5176.28 3628H5340.61V3150H5176.28V3628ZM5415.28 3472V3389H4937.28V3472H5415.28ZM5176.28 3233H5011.95V3711H5176.28V3233ZM4772.95 3389V3472H5250.95V3389H4772.95ZM4847.63 3628H5011.95V3150H4847.63V3628ZM5086.63 3472V3389H4608.63V3472H5086.63ZM4847.63 3233H4683.3V3711H4847.63V3233ZM4444.3 3389V3472H4922.3V3389H4444.3ZM4518.98 3628H4683.3V3150H4518.98V3628ZM4757.98 3472V3389H4279.98V3472H4757.98ZM4518.98 3233H4354.65V3711H4518.98V3233ZM4115.65 3389V3472H4593.65V3389H4115.65ZM4190.32 3628H4354.65V3150H4190.32V3628ZM4429.32 3472V3389H3951.32V3472H4429.32ZM4190.32 3233H4026V3711H4190.32V3233ZM3787 3389V3472H4265V3389H3787ZM3861.67 3628H4026V3150H3861.67V3628ZM4100.67 3472V3389H3622.67V3472H4100.67ZM3861.67 3233H3697.34V3711H3861.67V3233ZM3458.34 3389V3472H3936.34V3389H3458.34ZM3533.02 3628H3697.34V3150H3533.02V3628ZM3772.02 3472V3389H3294.02V3472H3772.02ZM3533.02 3233H3368.69V3711H3533.02V3233ZM3129.69 3389V3472H3607.69V3389H3129.69ZM3204.36 3628H3368.69V3150H3204.36V3628ZM3443.36 3472V3389H2965.36V3472H3443.36ZM3204.36 3233H3040.04V3711H3204.36V3233ZM2801.04 3389V3472H3279.04V3389H2801.04ZM2875.71 3628H3040.04V3150H2875.71V3628ZM3114.71 3472V3389H2636.71V3472H3114.71ZM2875.71 3233H2711.39V3711H2875.71V3233ZM2472.39 3389V3472H2950.39V3389H2472.39ZM2547.06 3628H2711.39V3150H2547.06V3628ZM2786.06 3472V3389H2308.06V3472H2786.06ZM2547.06 3233H2382.73V3711H2547.06V3233ZM2143.73 3389V3472H2621.73V3389H2143.73ZM2218.41 3628H2382.73V3150H2218.41V3628ZM2457.41 3472V3389H1979.41V3472H2457.41ZM2218.41 3233H2054.08V3711H2218.41V3233ZM1815.08 3389V3472H2293.08V3389H1815.08ZM1889.75 3628H2054.08V3150H1889.75V3628ZM2128.75 3472V3389H1650.75V3472H2128.75ZM1889.75 3233H1725.43V3711H1889.75V3233ZM1486.43 3389V3472H1964.43V3389H1486.43ZM1561.1 3628H1725.43V3150H1561.1V3628ZM1800.1 3472V3389H1322.1V3472H1800.1ZM1561.1 3233H1396.77V3711H1561.1V3233ZM1157.77 3389V3472H1635.77V3389H1157.77ZM1232.45 3628H1396.77V3150H1232.45V3628ZM1471.45 3472V3389H993.448V3472H1471.45ZM1232.45 3233H1068.12V3711H1232.45V3233ZM829.122 3389V3472H1307.12V3389H829.122ZM903.795 3628H1068.12V3150H903.795V3628ZM1142.8 3472V3389H664.795V3472H1142.8ZM903.795 3233H739.469V3711H903.795V3233ZM500.469 3389V3472H978.469V3389H500.469ZM575.142 3628H739.469V3150H575.142V3628ZM814.142 3468.22V3389H336.142V3468.22H814.142ZM806.418 3407.94C811.216 3426.35 813.803 3445.49 813.97 3464.93L335.987 3469.02C336.161 3489.32 338.862 3509.28 343.867 3528.49L806.418 3407.94ZM813.97 3464.93C810.49 3058.34 509.229 2723.27 117.58 2666.46L48.9589 3139.51C210.294 3162.91 334.554 3301.55 335.987 3469.02L813.97 3464.93ZM-156.066 2824.08L-155.728 2904L322.267 2901.98L321.93 2822.06L-156.066 2824.08ZM1.01034 3062.42L83.9422 3062.07L81.9215 2584.07L-1.01034 2584.42L1.01034 3062.42ZM239 2823.42V2662.1H-239V2823.42H239ZM81.2398 2422.75L-1.0102 2423.1L1.0102 2901.09L83.2602 2900.75L81.2398 2422.75ZM-157.43 2501.44L-156.748 2662.76L321.248 2660.74L320.566 2499.42L-157.43 2501.44ZM1.01006 2739.77L82.5783 2739.43L80.5581 2261.43L-1.01006 2261.78L1.01006 2739.77ZM239 2500.78V2339.45H-239V2500.78H239ZM79.8765 2100.12L-1.00992 2100.46L1.00992 2578.45L81.8963 2578.11L79.8765 2100.12ZM-158.793 2178.81L-158.111 2340.12L319.884 2338.1L319.202 2176.79L-158.793 2178.81ZM1.00977 2417.13L81.2143 2416.79L79.1948 1938.8L-1.00977 1939.14L1.00977 2417.13ZM239 2178.13V2016.81H-239V2178.13H239ZM78.5127 1777.48L-1.00999 1777.82L1.00999 2255.81L80.5327 2255.47L78.5127 1777.48ZM-160.157 1856.17L-159.475 2017.49L318.521 2015.47L317.839 1854.15L-160.157 1856.17ZM1.01022 2094.49L79.8511 2094.16L77.8307 1616.16L-1.01022 1616.49L1.01022 2094.49ZM239 1855.49V1694.17H-239V1855.49H239ZM77.149 1454.84L-1.01007 1455.17L1.01007 1933.17L79.1692 1932.84L77.149 1454.84ZM-161.521 1533.53L-160.839 1694.85L317.157 1692.83L316.475 1531.51L-161.521 1533.53ZM1.0103 1771.85L78.4876 1771.52L76.467 1293.52L-1.0103 1293.85L1.0103 1771.85ZM239 1532.85V1371.53H-239V1532.85H239ZM75.7853 1132.21L-1.01015 1132.53L1.01015 1610.53L77.8056 1610.2L75.7853 1132.21ZM-162.884 1210.9L-162.202 1372.21L315.793 1370.19L315.112 1208.88L-162.884 1210.9ZM1.01 1449.21L77.1237 1448.88L75.1037 970.888L-1.01 971.21L1.01 1449.21ZM239 1210.21V1048.89H-239V1210.21H239ZM74.4216 809.57L-1.01024 809.889L1.01024 1287.88L76.4421 1287.57L74.4216 809.57ZM-164.248 888.26L-163.566 1049.58L314.43 1047.56L313.748 886.24L-164.248 888.26ZM1.01008 1126.56L75.7601 1126.25L73.7399 648.252L-1.01008 648.568L1.01008 1126.56ZM239 887.566V726.245H-239V887.566H239ZM73.0581 486.934L-1.01012 487.247L1.01012 965.243L75.0783 964.93L73.0581 486.934ZM-165.587 571.368L-164.93 726.942L313.066 724.922L312.409 569.348L-165.587 571.368ZM103.622 807.441C502.067 756.667 810.449 418.449 813.97 7.06962L335.987 2.97868C334.537 172.459 207.309 312.362 43.199 333.275L103.622 807.441ZM813.97 7.07145C813.803 26.5114 811.216 45.642 806.421 64.0449L343.864 -56.4768C338.862 -37.2798 336.161 -17.3181 335.987 2.97685L813.97 7.07145ZM814.142 70.001V3.78405H336.142V70.001H814.142ZM8057.5 2941.57V2845.12H7579.5V2941.57H8057.5ZM7782.5 3180.57H7818.5V2702.57H7782.5V3180.57ZM7543.5 2845.12V2941.57H8021.5V2845.12H7543.5ZM7818.5 2606.12H7782.5V3084.12H7818.5V2606.12ZM8057.5 2748.68V2652.23H7579.5V2748.68H8057.5ZM7782.5 2987.68H7818.5V2509.68H7782.5V2987.68ZM7543.5 2652.23V2748.68H8021.5V2652.23H7543.5ZM7818.5 2413.23H7782.5V2891.23H7818.5V2413.23ZM8057.5 2555.79V2459.34H7579.5V2555.79H8057.5ZM7782.5 2794.79H7818.5V2316.79H7782.5V2794.79ZM7543.5 2459.34V2555.79H8021.5V2459.34H7543.5ZM7818.5 2220.34H7782.5V2698.34H7818.5V2220.34ZM8057.5 2362.9V2266.45H7579.5V2362.9H8057.5ZM7782.5 2601.9H7818.5V2123.9H7782.5V2601.9ZM7543.5 2266.45V2362.9H8021.5V2266.45H7543.5ZM7818.5 2027.45H7782.5V2505.45H7818.5V2027.45ZM8057.5 2170.01V2073.56H7579.5V2170.01H8057.5ZM7782.5 2409.01H7818.5V1931.01H7782.5V2409.01ZM7543.5 2073.56V2170.01H8021.5V2073.56H7543.5ZM7818.5 1834.56H7782.5V2312.56H7818.5V1834.56ZM8057.5 1977.11V1880.67H7579.5V1977.11H8057.5ZM7782.5 2216.11H7818.5V1738.11H7782.5V2216.11ZM7543.5 1880.67V1977.11H8021.5V1880.67H7543.5ZM7818.5 1641.67H7782.5V2119.67H7818.5V1641.67ZM8057.5 1784.22V1687.78H7579.5V1784.22H8057.5ZM7782.5 2023.22H7818.5V1545.22H7782.5V2023.22ZM7543.5 1687.78V1784.22H8021.5V1687.78H7543.5ZM7818.5 1448.78H7782.5V1926.78H7818.5V1448.78ZM8057.5 1591.33V1494.89H7579.5V1591.33H8057.5ZM7782.5 1830.33H7818.5V1352.33H7782.5V1830.33ZM7543.5 1494.89V1591.33H8021.5V1494.89H7543.5ZM7818.5 1255.89H7782.5V1733.89H7818.5V1255.89ZM8057.5 1398.44V1302H7579.5V1398.44H8057.5ZM7782.5 1637.44H7818.5V1159.44H7782.5V1637.44ZM7543.5 1302V1398.44H8021.5V1302H7543.5ZM7818.5 1063H7782.5V1541H7818.5V1063ZM8057.5 1205.55V1109.1H7579.5V1205.55H8057.5ZM7782.5 1444.55H7818.5V966.55H7782.5V1444.55ZM7543.5 1109.1V1205.55H8021.5V1109.1H7543.5ZM7818.5 870.104H7782.5V1348.1H7818.5V870.104ZM8057.5 1012.66V916.213H7579.5V1012.66H8057.5ZM7782.5 1251.66H7818.5V773.659H7782.5V1251.66ZM7543.5 916.213V1012.66H8021.5V916.213H7543.5ZM7818.5 677.213H7782.5V1155.21H7818.5V677.213ZM8057.5 819.768V723.322H7579.5V819.768H8057.5ZM7782.5 1058.77H7818.5V580.768H7782.5V1058.77ZM7543.5 723.322V819.768H8021.5V723.322H7543.5ZM7818.5 484.322H7782.5V962.322H7818.5V484.322ZM8057.5 626.876V530.431H7579.5V626.876H8057.5ZM7782.5 865.876H7818.5V387.876H7782.5V865.876ZM7543.5 530.431V626.876H8021.5V530.431H7543.5ZM7818.5 291.431H7782.5V769.431H7818.5V291.431Z" fill="#B9C3AF" mask="url(#path-1-inside-1_9_4346)"/>
</svg>
